<?xml version="1.0" ?><svg id="Layer_1" style="enable-background:new 0 0 128 128;" version="1.1" viewBox="0 0 128 128" xml:space="preserve" xmlns="http://www.w3.org/2000/svg" xmlns:xlink="http://www.w3.org/1999/xlink"><style type="text/css">
	.st0{fill:#FFFFFF;}
	.st1{fill:none;stroke:#444B54;stroke-width:6;stroke-linecap:round;stroke-linejoin:round;stroke-miterlimit:10;}
	.st2{fill:#76ECFF;}
	.st3{fill:#E4E7E7;}
	.st4{fill:#FF697B;}
	.st5{fill:#659EC9;}
	.st6{fill:#444B54;}
	.st7{fill:#A4F4C4;}
	.st8{fill:#06A18C;}
	.st9{fill:#8FE5B5;}
	.st10{opacity:0.5;fill:#06A18C;}
	.st11{opacity:0.5;}
	.st12{fill:#FFDBAB;}
	.st13{fill:#D18669;}
	.st14{fill:#FCF09D;}
	.st15{fill:none;stroke:#FFFFFF;stroke-miterlimit:10;}
	.st16{fill:#EDECEB;}
	.st17{fill:#4FBBC6;}
</style><g><g><circle class="st0" cx="64" cy="64" r="45"/></g></g><g><g><path class="st6" d="M63,49.8c-1.9,0-3.7,0.4-5.4,1.1c2.2,0.8,3.8,2.9,3.8,5.4c0,3.2-2.6,5.8-5.8,5.8c-2.5,0-4.6-1.6-5.4-3.9    c-0.7,1.7-1.1,3.5-1.1,5.4c0,7.6,6.2,13.8,13.8,13.8c7.6,0,13.8-6.2,13.8-13.8C76.9,56,70.7,49.8,63,49.8z"/></g><g><path class="st3" d="M64,29c-19.3,0-35,15.7-35,35s15.7,35,35,35s35-15.7,35-35S83.3,29,64,29z M92.2,61.4    c0,13.9-13.1,25.2-29.2,25.2c-16.1,0-29.1-11.3-29.1-25.2c0-1.5,0.2-2.9,0.4-4.4c6-6.2,16.6-10.3,28.7-10.3    c12.1,0,22.7,4.1,28.7,10.3C92,58.5,92.2,60,92.2,61.4z"/></g></g><g><path class="st6" d="M64,112c-26.5,0-48-21.5-48-48s21.5-48,48-48s48,21.5,48,48S90.5,112,64,112z M64,22c-23.2,0-42,18.8-42,42   s18.8,42,42,42s42-18.8,42-42S87.2,22,64,22z"/></g></svg>